<mxfile host="app.diagrams.net" modified="2024-07-02T15:17:26.548Z" agent="Mozilla/5.0 (Windows NT 10.0; Win64; x64) AppleWebKit/537.36 (KHTML, like Gecko) Chrome/126.0.0.0 Safari/537.36" etag="dhz-jVUmxwducNVKu9ZE" version="24.6.4" type="google">
  <diagram name="Page-1" id="22i8_ppTVLPkGlmDBwtm">
    <mxGraphModel grid="1" page="1" gridSize="10" guides="1" tooltips="1" connect="1" arrows="1" fold="1" pageScale="1" pageWidth="850" pageHeight="1100" math="0" shadow="0">
      <root>
        <mxCell id="0" />
        <mxCell id="1" parent="0" />
        <mxCell id="domx7-sZn7_cAPAupG3E-147" style="edgeStyle=orthogonalEdgeStyle;rounded=0;orthogonalLoop=1;jettySize=auto;html=1;exitX=1;exitY=0.5;exitDx=0;exitDy=0;entryX=0;entryY=0.5;entryDx=0;entryDy=0;" edge="1" parent="1" source="domx7-sZn7_cAPAupG3E-3" target="domx7-sZn7_cAPAupG3E-22">
          <mxGeometry relative="1" as="geometry" />
        </mxCell>
        <mxCell id="domx7-sZn7_cAPAupG3E-3" value="Instructor" style="rounded=0;whiteSpace=wrap;html=1;" vertex="1" parent="1">
          <mxGeometry x="-700" y="390" width="120" height="60" as="geometry" />
        </mxCell>
        <mxCell id="domx7-sZn7_cAPAupG3E-4" value="&lt;u&gt;InstructorID&lt;/u&gt;" style="ellipse;whiteSpace=wrap;html=1;" vertex="1" parent="1">
          <mxGeometry x="-840" y="540" width="120" height="80" as="geometry" />
        </mxCell>
        <mxCell id="domx7-sZn7_cAPAupG3E-10" style="edgeStyle=orthogonalEdgeStyle;rounded=0;orthogonalLoop=1;jettySize=auto;html=1;exitX=0.5;exitY=0;exitDx=0;exitDy=0;" edge="1" parent="1" source="domx7-sZn7_cAPAupG3E-5">
          <mxGeometry relative="1" as="geometry">
            <mxPoint x="-640.1481481481483" y="539.8518518518517" as="targetPoint" />
          </mxGeometry>
        </mxCell>
        <mxCell id="domx7-sZn7_cAPAupG3E-5" value="Name" style="ellipse;whiteSpace=wrap;html=1;" vertex="1" parent="1">
          <mxGeometry x="-700" y="540" width="120" height="80" as="geometry" />
        </mxCell>
        <mxCell id="domx7-sZn7_cAPAupG3E-6" value="Email" style="ellipse;whiteSpace=wrap;html=1;" vertex="1" parent="1">
          <mxGeometry x="-560" y="540" width="120" height="80" as="geometry" />
        </mxCell>
        <mxCell id="domx7-sZn7_cAPAupG3E-7" value="" style="endArrow=classic;html=1;rounded=0;" edge="1" parent="1" target="domx7-sZn7_cAPAupG3E-4">
          <mxGeometry width="50" height="50" relative="1" as="geometry">
            <mxPoint x="-690" y="450" as="sourcePoint" />
            <mxPoint x="-710" y="540" as="targetPoint" />
          </mxGeometry>
        </mxCell>
        <mxCell id="domx7-sZn7_cAPAupG3E-8" value="" style="endArrow=classic;html=1;rounded=0;exitX=0.925;exitY=0.979;exitDx=0;exitDy=0;exitPerimeter=0;" edge="1" parent="1" source="domx7-sZn7_cAPAupG3E-3">
          <mxGeometry width="50" height="50" relative="1" as="geometry">
            <mxPoint x="-455" y="450" as="sourcePoint" />
            <mxPoint x="-520" y="544" as="targetPoint" />
          </mxGeometry>
        </mxCell>
        <mxCell id="domx7-sZn7_cAPAupG3E-9" value="" style="endArrow=classic;html=1;rounded=0;entryX=0.5;entryY=0;entryDx=0;entryDy=0;exitX=0.579;exitY=0.967;exitDx=0;exitDy=0;exitPerimeter=0;" edge="1" parent="1" source="domx7-sZn7_cAPAupG3E-3" target="domx7-sZn7_cAPAupG3E-5">
          <mxGeometry width="50" height="50" relative="1" as="geometry">
            <mxPoint x="-635" y="450" as="sourcePoint" />
            <mxPoint x="-700" y="544" as="targetPoint" />
          </mxGeometry>
        </mxCell>
        <mxCell id="domx7-sZn7_cAPAupG3E-98" style="edgeStyle=orthogonalEdgeStyle;rounded=0;orthogonalLoop=1;jettySize=auto;html=1;entryX=0;entryY=0.5;entryDx=0;entryDy=0;" edge="1" parent="1" source="domx7-sZn7_cAPAupG3E-11" target="domx7-sZn7_cAPAupG3E-51">
          <mxGeometry relative="1" as="geometry" />
        </mxCell>
        <mxCell id="domx7-sZn7_cAPAupG3E-101" style="edgeStyle=orthogonalEdgeStyle;rounded=0;orthogonalLoop=1;jettySize=auto;html=1;entryX=0.5;entryY=1;entryDx=0;entryDy=0;" edge="1" parent="1" target="domx7-sZn7_cAPAupG3E-93">
          <mxGeometry relative="1" as="geometry">
            <mxPoint x="-119" y="110" as="targetPoint" />
            <mxPoint x="-128.9411764705883" y="390" as="sourcePoint" />
            <Array as="points">
              <mxPoint x="-80" y="390" />
            </Array>
          </mxGeometry>
        </mxCell>
        <mxCell id="domx7-sZn7_cAPAupG3E-119" style="edgeStyle=orthogonalEdgeStyle;rounded=0;orthogonalLoop=1;jettySize=auto;html=1;entryX=1;entryY=0.5;entryDx=0;entryDy=0;" edge="1" parent="1" source="domx7-sZn7_cAPAupG3E-11" target="domx7-sZn7_cAPAupG3E-116">
          <mxGeometry relative="1" as="geometry">
            <Array as="points">
              <mxPoint x="-130" y="-250" />
            </Array>
          </mxGeometry>
        </mxCell>
        <mxCell id="domx7-sZn7_cAPAupG3E-163" style="edgeStyle=orthogonalEdgeStyle;rounded=0;orthogonalLoop=1;jettySize=auto;html=1;entryX=1;entryY=0.5;entryDx=0;entryDy=0;" edge="1" parent="1" source="domx7-sZn7_cAPAupG3E-11" target="domx7-sZn7_cAPAupG3E-156">
          <mxGeometry relative="1" as="geometry">
            <Array as="points">
              <mxPoint x="-170" y="90" />
            </Array>
          </mxGeometry>
        </mxCell>
        <mxCell id="domx7-sZn7_cAPAupG3E-165" style="edgeStyle=orthogonalEdgeStyle;rounded=0;orthogonalLoop=1;jettySize=auto;html=1;entryX=0.5;entryY=1;entryDx=0;entryDy=0;" edge="1" parent="1" source="domx7-sZn7_cAPAupG3E-11" target="domx7-sZn7_cAPAupG3E-180">
          <mxGeometry relative="1" as="geometry">
            <mxPoint x="-130" y="-640" as="targetPoint" />
          </mxGeometry>
        </mxCell>
        <mxCell id="domx7-sZn7_cAPAupG3E-11" value="Course" style="rounded=0;whiteSpace=wrap;html=1;" vertex="1" parent="1">
          <mxGeometry x="-190" y="390" width="120" height="59" as="geometry" />
        </mxCell>
        <mxCell id="domx7-sZn7_cAPAupG3E-12" value="&lt;u&gt;CourseID&lt;/u&gt;" style="ellipse;whiteSpace=wrap;html=1;" vertex="1" parent="1">
          <mxGeometry x="-400" y="550" width="120" height="79" as="geometry" />
        </mxCell>
        <mxCell id="domx7-sZn7_cAPAupG3E-14" value="InstructorID (FK)" style="ellipse;whiteSpace=wrap;html=1;" vertex="1" parent="1">
          <mxGeometry x="-270" y="550" width="120" height="79" as="geometry" />
        </mxCell>
        <mxCell id="domx7-sZn7_cAPAupG3E-15" value="Title" style="ellipse;whiteSpace=wrap;html=1;" vertex="1" parent="1">
          <mxGeometry x="-140" y="560" width="120" height="79" as="geometry" />
        </mxCell>
        <mxCell id="domx7-sZn7_cAPAupG3E-16" value="" style="endArrow=classic;html=1;rounded=0;exitX=0.085;exitY=0.996;exitDx=0;exitDy=0;exitPerimeter=0;entryX=0.727;entryY=0.022;entryDx=0;entryDy=0;entryPerimeter=0;" edge="1" parent="1" source="domx7-sZn7_cAPAupG3E-11" target="domx7-sZn7_cAPAupG3E-12">
          <mxGeometry width="50" height="50" relative="1" as="geometry">
            <mxPoint x="-164.5999999999999" y="418.876" as="sourcePoint" />
            <mxPoint x="-305.3882218110514" y="550.2347830442004" as="targetPoint" />
          </mxGeometry>
        </mxCell>
        <mxCell id="domx7-sZn7_cAPAupG3E-17" value="" style="endArrow=classic;html=1;rounded=0;entryX=0.459;entryY=0.012;entryDx=0;entryDy=0;entryPerimeter=0;exitX=0.696;exitY=1.033;exitDx=0;exitDy=0;exitPerimeter=0;" edge="1" parent="1" source="domx7-sZn7_cAPAupG3E-11" target="domx7-sZn7_cAPAupG3E-15">
          <mxGeometry width="50" height="50" relative="1" as="geometry">
            <mxPoint x="-90" y="440" as="sourcePoint" />
            <mxPoint x="-10" y="544" as="targetPoint" />
          </mxGeometry>
        </mxCell>
        <mxCell id="domx7-sZn7_cAPAupG3E-18" value="" style="endArrow=classic;html=1;rounded=0;entryX=0.5;entryY=0;entryDx=0;entryDy=0;exitX=0.417;exitY=1.017;exitDx=0;exitDy=0;exitPerimeter=0;" edge="1" parent="1" source="domx7-sZn7_cAPAupG3E-11" target="domx7-sZn7_cAPAupG3E-14">
          <mxGeometry width="50" height="50" relative="1" as="geometry">
            <mxPoint x="-125" y="450" as="sourcePoint" />
            <mxPoint x="-190" y="544" as="targetPoint" />
          </mxGeometry>
        </mxCell>
        <mxCell id="domx7-sZn7_cAPAupG3E-20" value="Description" style="ellipse;whiteSpace=wrap;html=1;" vertex="1" parent="1">
          <mxGeometry x="10" y="550" width="120" height="79" as="geometry" />
        </mxCell>
        <mxCell id="domx7-sZn7_cAPAupG3E-21" value="" style="endArrow=classic;html=1;rounded=0;entryX=0.459;entryY=0.012;entryDx=0;entryDy=0;entryPerimeter=0;exitX=0.965;exitY=1.002;exitDx=0;exitDy=0;exitPerimeter=0;" edge="1" parent="1" source="domx7-sZn7_cAPAupG3E-11">
          <mxGeometry width="50" height="50" relative="1" as="geometry">
            <mxPoint x="-70" y="440" as="sourcePoint" />
            <mxPoint x="55" y="551" as="targetPoint" />
          </mxGeometry>
        </mxCell>
        <mxCell id="domx7-sZn7_cAPAupG3E-23" style="edgeStyle=orthogonalEdgeStyle;rounded=0;orthogonalLoop=1;jettySize=auto;html=1;exitX=1;exitY=0.5;exitDx=0;exitDy=0;entryX=0;entryY=0.5;entryDx=0;entryDy=0;" edge="1" parent="1" source="domx7-sZn7_cAPAupG3E-22" target="domx7-sZn7_cAPAupG3E-11">
          <mxGeometry relative="1" as="geometry" />
        </mxCell>
        <mxCell id="domx7-sZn7_cAPAupG3E-22" value="Can Have" style="rhombus;whiteSpace=wrap;html=1;" vertex="1" parent="1">
          <mxGeometry x="-425" y="380" width="80" height="80" as="geometry" />
        </mxCell>
        <mxCell id="domx7-sZn7_cAPAupG3E-25" value="*" style="text;html=1;align=center;verticalAlign=middle;resizable=0;points=[];autosize=1;strokeColor=none;fillColor=none;" vertex="1" parent="1">
          <mxGeometry x="-290" y="380" width="30" height="30" as="geometry" />
        </mxCell>
        <mxCell id="domx7-sZn7_cAPAupG3E-26" value="1" style="text;html=1;align=center;verticalAlign=middle;resizable=0;points=[];autosize=1;strokeColor=none;fillColor=none;" vertex="1" parent="1">
          <mxGeometry x="-515" y="380" width="30" height="30" as="geometry" />
        </mxCell>
        <mxCell id="domx7-sZn7_cAPAupG3E-146" style="edgeStyle=orthogonalEdgeStyle;rounded=0;orthogonalLoop=1;jettySize=auto;html=1;entryX=0;entryY=0.5;entryDx=0;entryDy=0;" edge="1" parent="1" source="domx7-sZn7_cAPAupG3E-27" target="domx7-sZn7_cAPAupG3E-46">
          <mxGeometry relative="1" as="geometry" />
        </mxCell>
        <mxCell id="domx7-sZn7_cAPAupG3E-27" value="Assignment" style="rounded=0;whiteSpace=wrap;html=1;" vertex="1" parent="1">
          <mxGeometry x="391" y="388" width="120" height="60" as="geometry" />
        </mxCell>
        <mxCell id="domx7-sZn7_cAPAupG3E-28" value="&lt;u&gt;AssignmentID&lt;/u&gt;" style="ellipse;whiteSpace=wrap;html=1;" vertex="1" parent="1">
          <mxGeometry x="180" y="550" width="120" height="80" as="geometry" />
        </mxCell>
        <mxCell id="domx7-sZn7_cAPAupG3E-30" value="CourseID(FK)" style="ellipse;whiteSpace=wrap;html=1;" vertex="1" parent="1">
          <mxGeometry x="310" y="560" width="120" height="80" as="geometry" />
        </mxCell>
        <mxCell id="domx7-sZn7_cAPAupG3E-31" value="Title" style="ellipse;whiteSpace=wrap;html=1;" vertex="1" parent="1">
          <mxGeometry x="440" y="560" width="120" height="80" as="geometry" />
        </mxCell>
        <mxCell id="domx7-sZn7_cAPAupG3E-32" value="" style="endArrow=classic;html=1;rounded=0;exitX=0.25;exitY=1;exitDx=0;exitDy=0;" edge="1" parent="1" source="domx7-sZn7_cAPAupG3E-27" target="domx7-sZn7_cAPAupG3E-28">
          <mxGeometry width="50" height="50" relative="1" as="geometry">
            <mxPoint x="401" y="460" as="sourcePoint" />
            <mxPoint x="381" y="550" as="targetPoint" />
          </mxGeometry>
        </mxCell>
        <mxCell id="domx7-sZn7_cAPAupG3E-33" value="" style="endArrow=classic;html=1;rounded=0;exitX=0.75;exitY=1;exitDx=0;exitDy=0;entryX=0.5;entryY=0;entryDx=0;entryDy=0;" edge="1" parent="1" source="domx7-sZn7_cAPAupG3E-27" target="domx7-sZn7_cAPAupG3E-31">
          <mxGeometry width="50" height="50" relative="1" as="geometry">
            <mxPoint x="636" y="460" as="sourcePoint" />
            <mxPoint x="571" y="554" as="targetPoint" />
          </mxGeometry>
        </mxCell>
        <mxCell id="domx7-sZn7_cAPAupG3E-34" value="" style="endArrow=classic;html=1;rounded=0;entryX=0.5;entryY=0;entryDx=0;entryDy=0;exitX=0.345;exitY=0.998;exitDx=0;exitDy=0;exitPerimeter=0;" edge="1" parent="1" source="domx7-sZn7_cAPAupG3E-27" target="domx7-sZn7_cAPAupG3E-30">
          <mxGeometry width="50" height="50" relative="1" as="geometry">
            <mxPoint x="456" y="460" as="sourcePoint" />
            <mxPoint x="391" y="554" as="targetPoint" />
          </mxGeometry>
        </mxCell>
        <mxCell id="domx7-sZn7_cAPAupG3E-35" value="Submission" style="rounded=0;whiteSpace=wrap;html=1;" vertex="1" parent="1">
          <mxGeometry x="951" y="388" width="120" height="59" as="geometry" />
        </mxCell>
        <mxCell id="domx7-sZn7_cAPAupG3E-36" value="&lt;u&gt;SubmissionID&lt;/u&gt;" style="ellipse;whiteSpace=wrap;html=1;" vertex="1" parent="1">
          <mxGeometry x="710" y="571" width="120" height="79" as="geometry" />
        </mxCell>
        <mxCell id="domx7-sZn7_cAPAupG3E-37" value="AssignmentID(FK)" style="ellipse;whiteSpace=wrap;html=1;" vertex="1" parent="1">
          <mxGeometry x="840" y="571" width="120" height="79" as="geometry" />
        </mxCell>
        <mxCell id="domx7-sZn7_cAPAupG3E-38" value="StudentID (FK)" style="ellipse;whiteSpace=wrap;html=1;" vertex="1" parent="1">
          <mxGeometry x="970" y="571" width="120" height="79" as="geometry" />
        </mxCell>
        <mxCell id="domx7-sZn7_cAPAupG3E-39" value="" style="endArrow=classic;html=1;rounded=0;exitX=0.085;exitY=0.996;exitDx=0;exitDy=0;exitPerimeter=0;entryX=0.727;entryY=0.022;entryDx=0;entryDy=0;entryPerimeter=0;" edge="1" parent="1" source="domx7-sZn7_cAPAupG3E-35" target="domx7-sZn7_cAPAupG3E-36">
          <mxGeometry width="50" height="50" relative="1" as="geometry">
            <mxPoint x="926.4000000000001" y="428.876" as="sourcePoint" />
            <mxPoint x="785.6117781889486" y="560.2347830442004" as="targetPoint" />
          </mxGeometry>
        </mxCell>
        <mxCell id="domx7-sZn7_cAPAupG3E-40" value="" style="endArrow=classic;html=1;rounded=0;entryX=0.459;entryY=0.012;entryDx=0;entryDy=0;entryPerimeter=0;exitX=0.696;exitY=1.033;exitDx=0;exitDy=0;exitPerimeter=0;" edge="1" parent="1" source="domx7-sZn7_cAPAupG3E-35" target="domx7-sZn7_cAPAupG3E-38">
          <mxGeometry width="50" height="50" relative="1" as="geometry">
            <mxPoint x="1001" y="450" as="sourcePoint" />
            <mxPoint x="1081" y="554" as="targetPoint" />
          </mxGeometry>
        </mxCell>
        <mxCell id="domx7-sZn7_cAPAupG3E-41" value="" style="endArrow=classic;html=1;rounded=0;entryX=0.5;entryY=0;entryDx=0;entryDy=0;exitX=0.417;exitY=1.017;exitDx=0;exitDy=0;exitPerimeter=0;" edge="1" parent="1" source="domx7-sZn7_cAPAupG3E-35" target="domx7-sZn7_cAPAupG3E-37">
          <mxGeometry width="50" height="50" relative="1" as="geometry">
            <mxPoint x="966" y="460" as="sourcePoint" />
            <mxPoint x="901" y="554" as="targetPoint" />
          </mxGeometry>
        </mxCell>
        <mxCell id="domx7-sZn7_cAPAupG3E-42" value="SubmissionDate" style="ellipse;whiteSpace=wrap;html=1;" vertex="1" parent="1">
          <mxGeometry x="1100" y="571" width="120" height="79" as="geometry" />
        </mxCell>
        <mxCell id="domx7-sZn7_cAPAupG3E-43" value="" style="endArrow=classic;html=1;rounded=0;entryX=0.244;entryY=0.072;entryDx=0;entryDy=0;entryPerimeter=0;" edge="1" parent="1" target="domx7-sZn7_cAPAupG3E-42">
          <mxGeometry width="50" height="50" relative="1" as="geometry">
            <mxPoint x="1050" y="449" as="sourcePoint" />
            <mxPoint x="1146" y="561" as="targetPoint" />
          </mxGeometry>
        </mxCell>
        <mxCell id="domx7-sZn7_cAPAupG3E-188" style="edgeStyle=orthogonalEdgeStyle;rounded=0;orthogonalLoop=1;jettySize=auto;html=1;entryX=0;entryY=0.5;entryDx=0;entryDy=0;" edge="1" parent="1" source="domx7-sZn7_cAPAupG3E-46" target="domx7-sZn7_cAPAupG3E-35">
          <mxGeometry relative="1" as="geometry" />
        </mxCell>
        <mxCell id="domx7-sZn7_cAPAupG3E-46" value="Have" style="rhombus;whiteSpace=wrap;html=1;" vertex="1" parent="1">
          <mxGeometry x="670" y="379" width="80" height="80" as="geometry" />
        </mxCell>
        <mxCell id="domx7-sZn7_cAPAupG3E-47" value="*" style="text;html=1;align=center;verticalAlign=middle;resizable=0;points=[];autosize=1;strokeColor=none;fillColor=none;" vertex="1" parent="1">
          <mxGeometry x="791" y="390" width="30" height="30" as="geometry" />
        </mxCell>
        <mxCell id="domx7-sZn7_cAPAupG3E-48" value="*" style="text;html=1;align=center;verticalAlign=middle;resizable=0;points=[];autosize=1;strokeColor=none;fillColor=none;" vertex="1" parent="1">
          <mxGeometry x="576" y="390" width="30" height="30" as="geometry" />
        </mxCell>
        <mxCell id="domx7-sZn7_cAPAupG3E-49" value="Description" style="ellipse;whiteSpace=wrap;html=1;" vertex="1" parent="1">
          <mxGeometry x="571" y="560" width="120" height="80" as="geometry" />
        </mxCell>
        <mxCell id="domx7-sZn7_cAPAupG3E-50" value="" style="endArrow=classic;html=1;rounded=0;exitX=0.992;exitY=1;exitDx=0;exitDy=0;exitPerimeter=0;entryX=0.321;entryY=0.04;entryDx=0;entryDy=0;entryPerimeter=0;" edge="1" parent="1" source="domx7-sZn7_cAPAupG3E-27" target="domx7-sZn7_cAPAupG3E-49">
          <mxGeometry width="50" height="50" relative="1" as="geometry">
            <mxPoint x="512" y="469" as="sourcePoint" />
            <mxPoint x="510" y="579" as="targetPoint" />
          </mxGeometry>
        </mxCell>
        <mxCell id="domx7-sZn7_cAPAupG3E-52" style="edgeStyle=orthogonalEdgeStyle;rounded=0;orthogonalLoop=1;jettySize=auto;html=1;" edge="1" parent="1" source="domx7-sZn7_cAPAupG3E-51">
          <mxGeometry relative="1" as="geometry">
            <mxPoint x="390" y="420" as="targetPoint" />
          </mxGeometry>
        </mxCell>
        <mxCell id="domx7-sZn7_cAPAupG3E-51" value="Can Have" style="rhombus;whiteSpace=wrap;html=1;" vertex="1" parent="1">
          <mxGeometry x="120" y="380" width="80" height="80" as="geometry" />
        </mxCell>
        <mxCell id="domx7-sZn7_cAPAupG3E-54" value="Grade" style="ellipse;whiteSpace=wrap;html=1;" vertex="1" parent="1">
          <mxGeometry x="1240" y="571" width="120" height="79" as="geometry" />
        </mxCell>
        <mxCell id="domx7-sZn7_cAPAupG3E-55" value="" style="endArrow=classic;html=1;rounded=0;entryX=0.277;entryY=0.046;entryDx=0;entryDy=0;entryPerimeter=0;exitX=1;exitY=1;exitDx=0;exitDy=0;" edge="1" parent="1" source="domx7-sZn7_cAPAupG3E-35" target="domx7-sZn7_cAPAupG3E-54">
          <mxGeometry width="50" height="50" relative="1" as="geometry">
            <mxPoint x="1070" y="460" as="sourcePoint" />
            <mxPoint x="1275" y="578" as="targetPoint" />
          </mxGeometry>
        </mxCell>
        <mxCell id="domx7-sZn7_cAPAupG3E-56" value="LiveSession" style="rounded=0;whiteSpace=wrap;html=1;" vertex="1" parent="1">
          <mxGeometry x="371" y="40" width="120" height="60" as="geometry" />
        </mxCell>
        <mxCell id="domx7-sZn7_cAPAupG3E-57" value="&lt;u&gt;SessionID&lt;/u&gt;" style="ellipse;whiteSpace=wrap;html=1;" vertex="1" parent="1">
          <mxGeometry x="-30" y="140" width="120" height="80" as="geometry" />
        </mxCell>
        <mxCell id="domx7-sZn7_cAPAupG3E-58" value="CourseID(FK)" style="ellipse;whiteSpace=wrap;html=1;" vertex="1" parent="1">
          <mxGeometry x="80" y="200" width="120" height="80" as="geometry" />
        </mxCell>
        <mxCell id="domx7-sZn7_cAPAupG3E-59" value="Title" style="ellipse;whiteSpace=wrap;html=1;" vertex="1" parent="1">
          <mxGeometry x="220" y="220" width="120" height="80" as="geometry" />
        </mxCell>
        <mxCell id="domx7-sZn7_cAPAupG3E-60" value="" style="endArrow=classic;html=1;rounded=0;" edge="1" parent="1" target="domx7-sZn7_cAPAupG3E-57">
          <mxGeometry width="50" height="50" relative="1" as="geometry">
            <mxPoint x="381" y="100" as="sourcePoint" />
            <mxPoint x="361" y="190" as="targetPoint" />
          </mxGeometry>
        </mxCell>
        <mxCell id="domx7-sZn7_cAPAupG3E-61" value="" style="endArrow=classic;html=1;rounded=0;exitX=0.5;exitY=1;exitDx=0;exitDy=0;entryX=0.5;entryY=0;entryDx=0;entryDy=0;" edge="1" parent="1" source="domx7-sZn7_cAPAupG3E-56" target="domx7-sZn7_cAPAupG3E-59">
          <mxGeometry width="50" height="50" relative="1" as="geometry">
            <mxPoint x="616" y="100" as="sourcePoint" />
            <mxPoint x="551" y="194" as="targetPoint" />
          </mxGeometry>
        </mxCell>
        <mxCell id="domx7-sZn7_cAPAupG3E-62" value="" style="endArrow=classic;html=1;rounded=0;entryX=0.5;entryY=0;entryDx=0;entryDy=0;exitX=0.345;exitY=0.998;exitDx=0;exitDy=0;exitPerimeter=0;" edge="1" parent="1" source="domx7-sZn7_cAPAupG3E-56" target="domx7-sZn7_cAPAupG3E-58">
          <mxGeometry width="50" height="50" relative="1" as="geometry">
            <mxPoint x="436" y="100" as="sourcePoint" />
            <mxPoint x="371" y="194" as="targetPoint" />
          </mxGeometry>
        </mxCell>
        <mxCell id="domx7-sZn7_cAPAupG3E-75" value="*" style="text;html=1;align=center;verticalAlign=middle;resizable=0;points=[];autosize=1;strokeColor=none;fillColor=none;" vertex="1" parent="1">
          <mxGeometry x="771" y="30" width="30" height="30" as="geometry" />
        </mxCell>
        <mxCell id="domx7-sZn7_cAPAupG3E-77" value="Description" style="ellipse;whiteSpace=wrap;html=1;" vertex="1" parent="1">
          <mxGeometry x="360" y="240" width="120" height="80" as="geometry" />
        </mxCell>
        <mxCell id="domx7-sZn7_cAPAupG3E-78" value="" style="endArrow=classic;html=1;rounded=0;entryX=0.418;entryY=0.006;entryDx=0;entryDy=0;entryPerimeter=0;" edge="1" parent="1" target="domx7-sZn7_cAPAupG3E-77">
          <mxGeometry width="50" height="50" relative="1" as="geometry">
            <mxPoint x="448" y="100" as="sourcePoint" />
            <mxPoint x="490" y="219" as="targetPoint" />
          </mxGeometry>
        </mxCell>
        <mxCell id="domx7-sZn7_cAPAupG3E-87" value="Date" style="ellipse;whiteSpace=wrap;html=1;" vertex="1" parent="1">
          <mxGeometry x="500" y="240" width="120" height="80" as="geometry" />
        </mxCell>
        <mxCell id="domx7-sZn7_cAPAupG3E-88" value="" style="endArrow=classic;html=1;rounded=0;entryX=0.321;entryY=0.04;entryDx=0;entryDy=0;entryPerimeter=0;exitX=0.821;exitY=1.01;exitDx=0;exitDy=0;exitPerimeter=0;" edge="1" parent="1" source="domx7-sZn7_cAPAupG3E-56" target="domx7-sZn7_cAPAupG3E-87">
          <mxGeometry width="50" height="50" relative="1" as="geometry">
            <mxPoint x="576" y="100" as="sourcePoint" />
            <mxPoint x="603" y="230" as="targetPoint" />
          </mxGeometry>
        </mxCell>
        <mxCell id="domx7-sZn7_cAPAupG3E-91" value="Time" style="ellipse;whiteSpace=wrap;html=1;" vertex="1" parent="1">
          <mxGeometry x="620" y="160" width="120" height="80" as="geometry" />
        </mxCell>
        <mxCell id="domx7-sZn7_cAPAupG3E-92" value="" style="endArrow=classic;html=1;rounded=0;entryX=0;entryY=0.5;entryDx=0;entryDy=0;exitX=0.919;exitY=0.985;exitDx=0;exitDy=0;exitPerimeter=0;" edge="1" parent="1" source="domx7-sZn7_cAPAupG3E-56" target="domx7-sZn7_cAPAupG3E-91">
          <mxGeometry width="50" height="50" relative="1" as="geometry">
            <mxPoint x="480" y="111" as="sourcePoint" />
            <mxPoint x="549" y="253" as="targetPoint" />
          </mxGeometry>
        </mxCell>
        <mxCell id="domx7-sZn7_cAPAupG3E-95" style="edgeStyle=orthogonalEdgeStyle;rounded=0;orthogonalLoop=1;jettySize=auto;html=1;entryX=0;entryY=0.5;entryDx=0;entryDy=0;" edge="1" parent="1" source="domx7-sZn7_cAPAupG3E-93" target="domx7-sZn7_cAPAupG3E-56">
          <mxGeometry relative="1" as="geometry" />
        </mxCell>
        <mxCell id="domx7-sZn7_cAPAupG3E-93" value="Can Have" style="rhombus;whiteSpace=wrap;html=1;" vertex="1" parent="1">
          <mxGeometry x="-120" y="30" width="80" height="80" as="geometry" />
        </mxCell>
        <mxCell id="domx7-sZn7_cAPAupG3E-96" value="*" style="text;html=1;align=center;verticalAlign=middle;resizable=0;points=[];autosize=1;strokeColor=none;fillColor=none;" vertex="1" parent="1">
          <mxGeometry x="-485" y="55" width="30" height="30" as="geometry" />
        </mxCell>
        <mxCell id="domx7-sZn7_cAPAupG3E-97" value="*" style="text;html=1;align=center;verticalAlign=middle;resizable=0;points=[];autosize=1;strokeColor=none;fillColor=none;" vertex="1" parent="1">
          <mxGeometry x="25" y="28" width="30" height="30" as="geometry" />
        </mxCell>
        <mxCell id="domx7-sZn7_cAPAupG3E-99" value="*" style="text;html=1;align=center;verticalAlign=middle;resizable=0;points=[];autosize=1;strokeColor=none;fillColor=none;" vertex="1" parent="1">
          <mxGeometry x="25" y="378" width="30" height="30" as="geometry" />
        </mxCell>
        <mxCell id="domx7-sZn7_cAPAupG3E-100" value="*" style="text;html=1;align=center;verticalAlign=middle;resizable=0;points=[];autosize=1;strokeColor=none;fillColor=none;" vertex="1" parent="1">
          <mxGeometry x="235" y="378" width="30" height="30" as="geometry" />
        </mxCell>
        <mxCell id="domx7-sZn7_cAPAupG3E-145" style="edgeStyle=orthogonalEdgeStyle;rounded=0;orthogonalLoop=1;jettySize=auto;html=1;entryX=0.538;entryY=0.93;entryDx=0;entryDy=0;entryPerimeter=0;" edge="1" parent="1">
          <mxGeometry relative="1" as="geometry">
            <mxPoint x="-779.96" y="-590.5999999999999" as="targetPoint" />
            <mxPoint x="-782.96" y="-289" as="sourcePoint" />
            <Array as="points">
              <mxPoint x="-780" y="-289" />
            </Array>
          </mxGeometry>
        </mxCell>
        <mxCell id="domx7-sZn7_cAPAupG3E-102" value="DiscussionForum" style="rounded=0;whiteSpace=wrap;html=1;" vertex="1" parent="1">
          <mxGeometry x="-840" y="-294" width="120" height="60" as="geometry" />
        </mxCell>
        <mxCell id="domx7-sZn7_cAPAupG3E-103" value="&lt;u&gt;ForumID&lt;/u&gt;" style="ellipse;whiteSpace=wrap;html=1;" vertex="1" parent="1">
          <mxGeometry x="-1210" y="-180" width="120" height="80" as="geometry" />
        </mxCell>
        <mxCell id="domx7-sZn7_cAPAupG3E-104" value="CourseID(FK)" style="ellipse;whiteSpace=wrap;html=1;" vertex="1" parent="1">
          <mxGeometry x="-1100" y="-120" width="120" height="80" as="geometry" />
        </mxCell>
        <mxCell id="domx7-sZn7_cAPAupG3E-105" value="Title" style="ellipse;whiteSpace=wrap;html=1;" vertex="1" parent="1">
          <mxGeometry x="-960" y="-100" width="120" height="80" as="geometry" />
        </mxCell>
        <mxCell id="domx7-sZn7_cAPAupG3E-106" value="" style="endArrow=classic;html=1;rounded=0;exitX=0.118;exitY=0.982;exitDx=0;exitDy=0;exitPerimeter=0;" edge="1" parent="1" source="domx7-sZn7_cAPAupG3E-102" target="domx7-sZn7_cAPAupG3E-103">
          <mxGeometry width="50" height="50" relative="1" as="geometry">
            <mxPoint x="-799" y="-220" as="sourcePoint" />
            <mxPoint x="-819" y="-130" as="targetPoint" />
          </mxGeometry>
        </mxCell>
        <mxCell id="domx7-sZn7_cAPAupG3E-107" value="" style="endArrow=classic;html=1;rounded=0;exitX=0.5;exitY=1;exitDx=0;exitDy=0;entryX=0.5;entryY=0;entryDx=0;entryDy=0;" edge="1" parent="1" source="domx7-sZn7_cAPAupG3E-102" target="domx7-sZn7_cAPAupG3E-105">
          <mxGeometry width="50" height="50" relative="1" as="geometry">
            <mxPoint x="-564" y="-220" as="sourcePoint" />
            <mxPoint x="-629" y="-126" as="targetPoint" />
          </mxGeometry>
        </mxCell>
        <mxCell id="domx7-sZn7_cAPAupG3E-108" value="" style="endArrow=classic;html=1;rounded=0;entryX=0.5;entryY=0;entryDx=0;entryDy=0;exitX=0.345;exitY=0.998;exitDx=0;exitDy=0;exitPerimeter=0;" edge="1" parent="1" source="domx7-sZn7_cAPAupG3E-102" target="domx7-sZn7_cAPAupG3E-104">
          <mxGeometry width="50" height="50" relative="1" as="geometry">
            <mxPoint x="-744" y="-220" as="sourcePoint" />
            <mxPoint x="-809" y="-126" as="targetPoint" />
          </mxGeometry>
        </mxCell>
        <mxCell id="domx7-sZn7_cAPAupG3E-109" value="Description" style="ellipse;whiteSpace=wrap;html=1;" vertex="1" parent="1">
          <mxGeometry x="-820" y="-80" width="120" height="80" as="geometry" />
        </mxCell>
        <mxCell id="domx7-sZn7_cAPAupG3E-110" value="" style="endArrow=classic;html=1;rounded=0;entryX=0.418;entryY=0.006;entryDx=0;entryDy=0;entryPerimeter=0;exitX=0.667;exitY=0.982;exitDx=0;exitDy=0;exitPerimeter=0;" edge="1" parent="1" source="domx7-sZn7_cAPAupG3E-102" target="domx7-sZn7_cAPAupG3E-109">
          <mxGeometry width="50" height="50" relative="1" as="geometry">
            <mxPoint x="-732" y="-220" as="sourcePoint" />
            <mxPoint x="-690" y="-101" as="targetPoint" />
          </mxGeometry>
        </mxCell>
        <mxCell id="domx7-sZn7_cAPAupG3E-111" value="Date" style="ellipse;whiteSpace=wrap;html=1;" vertex="1" parent="1">
          <mxGeometry x="-680" y="-80" width="120" height="80" as="geometry" />
        </mxCell>
        <mxCell id="domx7-sZn7_cAPAupG3E-112" value="" style="endArrow=classic;html=1;rounded=0;entryX=0.321;entryY=0.04;entryDx=0;entryDy=0;entryPerimeter=0;exitX=0.821;exitY=1.01;exitDx=0;exitDy=0;exitPerimeter=0;" edge="1" parent="1" source="domx7-sZn7_cAPAupG3E-102" target="domx7-sZn7_cAPAupG3E-111">
          <mxGeometry width="50" height="50" relative="1" as="geometry">
            <mxPoint x="-604" y="-220" as="sourcePoint" />
            <mxPoint x="-577" y="-90" as="targetPoint" />
          </mxGeometry>
        </mxCell>
        <mxCell id="domx7-sZn7_cAPAupG3E-113" value="Time" style="ellipse;whiteSpace=wrap;html=1;" vertex="1" parent="1">
          <mxGeometry x="-560" y="-160" width="120" height="80" as="geometry" />
        </mxCell>
        <mxCell id="domx7-sZn7_cAPAupG3E-114" value="" style="endArrow=classic;html=1;rounded=0;entryX=0;entryY=0.5;entryDx=0;entryDy=0;exitX=0.919;exitY=0.985;exitDx=0;exitDy=0;exitPerimeter=0;" edge="1" parent="1" source="domx7-sZn7_cAPAupG3E-102" target="domx7-sZn7_cAPAupG3E-113">
          <mxGeometry width="50" height="50" relative="1" as="geometry">
            <mxPoint x="-700" y="-209" as="sourcePoint" />
            <mxPoint x="-631" y="-67" as="targetPoint" />
          </mxGeometry>
        </mxCell>
        <mxCell id="domx7-sZn7_cAPAupG3E-120" style="edgeStyle=orthogonalEdgeStyle;rounded=0;orthogonalLoop=1;jettySize=auto;html=1;entryX=1;entryY=0.75;entryDx=0;entryDy=0;" edge="1" parent="1" source="domx7-sZn7_cAPAupG3E-116" target="domx7-sZn7_cAPAupG3E-102">
          <mxGeometry relative="1" as="geometry">
            <Array as="points">
              <mxPoint x="-710" y="-250" />
            </Array>
          </mxGeometry>
        </mxCell>
        <mxCell id="domx7-sZn7_cAPAupG3E-116" value="Has" style="rhombus;whiteSpace=wrap;html=1;" vertex="1" parent="1">
          <mxGeometry x="-485" y="-290" width="80" height="80" as="geometry" />
        </mxCell>
        <mxCell id="domx7-sZn7_cAPAupG3E-117" value="*" style="text;html=1;align=center;verticalAlign=middle;resizable=0;points=[];autosize=1;strokeColor=none;fillColor=none;" vertex="1" parent="1">
          <mxGeometry x="-1345" y="-92" width="30" height="30" as="geometry" />
        </mxCell>
        <mxCell id="domx7-sZn7_cAPAupG3E-118" value="*" style="text;html=1;align=center;verticalAlign=middle;resizable=0;points=[];autosize=1;strokeColor=none;fillColor=none;" vertex="1" parent="1">
          <mxGeometry x="-1155" y="-292" width="30" height="30" as="geometry" />
        </mxCell>
        <mxCell id="domx7-sZn7_cAPAupG3E-121" value="*" style="text;html=1;align=center;verticalAlign=middle;resizable=0;points=[];autosize=1;strokeColor=none;fillColor=none;" vertex="1" parent="1">
          <mxGeometry x="-375" y="-292" width="30" height="30" as="geometry" />
        </mxCell>
        <mxCell id="domx7-sZn7_cAPAupG3E-122" value="*" style="text;html=1;align=center;verticalAlign=middle;resizable=0;points=[];autosize=1;strokeColor=none;fillColor=none;" vertex="1" parent="1">
          <mxGeometry x="-545" y="-292" width="30" height="30" as="geometry" />
        </mxCell>
        <mxCell id="domx7-sZn7_cAPAupG3E-123" value="DiscussionThread" style="rounded=0;whiteSpace=wrap;html=1;" vertex="1" parent="1">
          <mxGeometry x="-1235" y="-660" width="120" height="60" as="geometry" />
        </mxCell>
        <mxCell id="domx7-sZn7_cAPAupG3E-124" value="&lt;u&gt;ThreadID&lt;/u&gt;" style="ellipse;whiteSpace=wrap;html=1;" vertex="1" parent="1">
          <mxGeometry x="-1605" y="-546" width="120" height="80" as="geometry" />
        </mxCell>
        <mxCell id="domx7-sZn7_cAPAupG3E-125" value="ForumID (FK)" style="ellipse;whiteSpace=wrap;html=1;" vertex="1" parent="1">
          <mxGeometry x="-1495" y="-486" width="120" height="80" as="geometry" />
        </mxCell>
        <mxCell id="domx7-sZn7_cAPAupG3E-126" value="Title" style="ellipse;whiteSpace=wrap;html=1;" vertex="1" parent="1">
          <mxGeometry x="-1355" y="-466" width="120" height="80" as="geometry" />
        </mxCell>
        <mxCell id="domx7-sZn7_cAPAupG3E-127" value="" style="endArrow=classic;html=1;rounded=0;exitX=0.118;exitY=0.982;exitDx=0;exitDy=0;exitPerimeter=0;" edge="1" parent="1" source="domx7-sZn7_cAPAupG3E-123" target="domx7-sZn7_cAPAupG3E-124">
          <mxGeometry width="50" height="50" relative="1" as="geometry">
            <mxPoint x="-1194" y="-586" as="sourcePoint" />
            <mxPoint x="-1214" y="-496" as="targetPoint" />
          </mxGeometry>
        </mxCell>
        <mxCell id="domx7-sZn7_cAPAupG3E-128" value="" style="endArrow=classic;html=1;rounded=0;exitX=0.5;exitY=1;exitDx=0;exitDy=0;entryX=0.5;entryY=0;entryDx=0;entryDy=0;" edge="1" parent="1" source="domx7-sZn7_cAPAupG3E-123" target="domx7-sZn7_cAPAupG3E-126">
          <mxGeometry width="50" height="50" relative="1" as="geometry">
            <mxPoint x="-959" y="-586" as="sourcePoint" />
            <mxPoint x="-1024" y="-492" as="targetPoint" />
          </mxGeometry>
        </mxCell>
        <mxCell id="domx7-sZn7_cAPAupG3E-129" value="" style="endArrow=classic;html=1;rounded=0;entryX=0.5;entryY=0;entryDx=0;entryDy=0;exitX=0.345;exitY=0.998;exitDx=0;exitDy=0;exitPerimeter=0;" edge="1" parent="1" source="domx7-sZn7_cAPAupG3E-123" target="domx7-sZn7_cAPAupG3E-125">
          <mxGeometry width="50" height="50" relative="1" as="geometry">
            <mxPoint x="-1139" y="-586" as="sourcePoint" />
            <mxPoint x="-1204" y="-492" as="targetPoint" />
          </mxGeometry>
        </mxCell>
        <mxCell id="domx7-sZn7_cAPAupG3E-130" value="Content" style="ellipse;whiteSpace=wrap;html=1;" vertex="1" parent="1">
          <mxGeometry x="-1215" y="-446" width="120" height="80" as="geometry" />
        </mxCell>
        <mxCell id="domx7-sZn7_cAPAupG3E-131" value="" style="endArrow=classic;html=1;rounded=0;entryX=0.418;entryY=0.006;entryDx=0;entryDy=0;entryPerimeter=0;exitX=0.667;exitY=0.982;exitDx=0;exitDy=0;exitPerimeter=0;" edge="1" parent="1" source="domx7-sZn7_cAPAupG3E-123" target="domx7-sZn7_cAPAupG3E-130">
          <mxGeometry width="50" height="50" relative="1" as="geometry">
            <mxPoint x="-1127" y="-586" as="sourcePoint" />
            <mxPoint x="-1085" y="-467" as="targetPoint" />
          </mxGeometry>
        </mxCell>
        <mxCell id="domx7-sZn7_cAPAupG3E-132" value="CreationDate" style="ellipse;whiteSpace=wrap;html=1;" vertex="1" parent="1">
          <mxGeometry x="-1075" y="-446" width="120" height="80" as="geometry" />
        </mxCell>
        <mxCell id="domx7-sZn7_cAPAupG3E-133" value="" style="endArrow=classic;html=1;rounded=0;entryX=0.321;entryY=0.04;entryDx=0;entryDy=0;entryPerimeter=0;exitX=0.821;exitY=1.01;exitDx=0;exitDy=0;exitPerimeter=0;" edge="1" parent="1" source="domx7-sZn7_cAPAupG3E-123" target="domx7-sZn7_cAPAupG3E-132">
          <mxGeometry width="50" height="50" relative="1" as="geometry">
            <mxPoint x="-999" y="-586" as="sourcePoint" />
            <mxPoint x="-972" y="-456" as="targetPoint" />
          </mxGeometry>
        </mxCell>
        <mxCell id="domx7-sZn7_cAPAupG3E-144" style="edgeStyle=orthogonalEdgeStyle;rounded=0;orthogonalLoop=1;jettySize=auto;html=1;entryX=1;entryY=0.5;entryDx=0;entryDy=0;" edge="1" parent="1" source="domx7-sZn7_cAPAupG3E-137" target="domx7-sZn7_cAPAupG3E-123">
          <mxGeometry relative="1" as="geometry" />
        </mxCell>
        <mxCell id="domx7-sZn7_cAPAupG3E-137" value="Has" style="rhombus;whiteSpace=wrap;html=1;" vertex="1" parent="1">
          <mxGeometry x="-820" y="-670" width="80" height="80" as="geometry" />
        </mxCell>
        <mxCell id="domx7-sZn7_cAPAupG3E-138" value="*" style="text;html=1;align=center;verticalAlign=middle;resizable=0;points=[];autosize=1;strokeColor=none;fillColor=none;" vertex="1" parent="1">
          <mxGeometry x="-1740" y="-458" width="30" height="30" as="geometry" />
        </mxCell>
        <mxCell id="domx7-sZn7_cAPAupG3E-139" value="*" style="text;html=1;align=center;verticalAlign=middle;resizable=0;points=[];autosize=1;strokeColor=none;fillColor=none;" vertex="1" parent="1">
          <mxGeometry x="-1550" y="-658" width="30" height="30" as="geometry" />
        </mxCell>
        <mxCell id="domx7-sZn7_cAPAupG3E-140" value="*" style="text;html=1;align=center;verticalAlign=middle;resizable=0;points=[];autosize=1;strokeColor=none;fillColor=none;" vertex="1" parent="1">
          <mxGeometry x="-769" y="-565" width="30" height="30" as="geometry" />
        </mxCell>
        <mxCell id="domx7-sZn7_cAPAupG3E-141" value="*" style="text;html=1;align=center;verticalAlign=middle;resizable=0;points=[];autosize=1;strokeColor=none;fillColor=none;" vertex="1" parent="1">
          <mxGeometry x="-940" y="-658" width="30" height="30" as="geometry" />
        </mxCell>
        <mxCell id="domx7-sZn7_cAPAupG3E-149" value="Student-Progress" style="rounded=0;whiteSpace=wrap;html=1;" vertex="1" parent="1">
          <mxGeometry x="-889" y="59" width="120" height="60" as="geometry" />
        </mxCell>
        <mxCell id="domx7-sZn7_cAPAupG3E-150" value="&lt;u&gt;ProgressID&lt;/u&gt;" style="ellipse;whiteSpace=wrap;html=1;" vertex="1" parent="1">
          <mxGeometry x="-1100" y="221" width="120" height="80" as="geometry" />
        </mxCell>
        <mxCell id="domx7-sZn7_cAPAupG3E-151" value="StudentID(FK)" style="ellipse;whiteSpace=wrap;html=1;" vertex="1" parent="1">
          <mxGeometry x="-970" y="231" width="120" height="80" as="geometry" />
        </mxCell>
        <mxCell id="domx7-sZn7_cAPAupG3E-152" value="CourseID(FK)" style="ellipse;whiteSpace=wrap;html=1;" vertex="1" parent="1">
          <mxGeometry x="-842" y="231" width="120" height="80" as="geometry" />
        </mxCell>
        <mxCell id="domx7-sZn7_cAPAupG3E-153" value="" style="endArrow=classic;html=1;rounded=0;" edge="1" parent="1" source="domx7-sZn7_cAPAupG3E-149" target="domx7-sZn7_cAPAupG3E-150">
          <mxGeometry width="50" height="50" relative="1" as="geometry">
            <mxPoint x="-879" y="131" as="sourcePoint" />
            <mxPoint x="-899" y="221" as="targetPoint" />
          </mxGeometry>
        </mxCell>
        <mxCell id="domx7-sZn7_cAPAupG3E-154" value="" style="endArrow=classic;html=1;rounded=0;exitX=0.75;exitY=1;exitDx=0;exitDy=0;entryX=0.5;entryY=0;entryDx=0;entryDy=0;" edge="1" parent="1" source="domx7-sZn7_cAPAupG3E-149" target="domx7-sZn7_cAPAupG3E-152">
          <mxGeometry width="50" height="50" relative="1" as="geometry">
            <mxPoint x="-644" y="131" as="sourcePoint" />
            <mxPoint x="-709" y="225" as="targetPoint" />
          </mxGeometry>
        </mxCell>
        <mxCell id="domx7-sZn7_cAPAupG3E-155" value="" style="endArrow=classic;html=1;rounded=0;entryX=0.5;entryY=0;entryDx=0;entryDy=0;exitX=0.345;exitY=0.998;exitDx=0;exitDy=0;exitPerimeter=0;" edge="1" parent="1" source="domx7-sZn7_cAPAupG3E-149" target="domx7-sZn7_cAPAupG3E-151">
          <mxGeometry width="50" height="50" relative="1" as="geometry">
            <mxPoint x="-824" y="131" as="sourcePoint" />
            <mxPoint x="-889" y="225" as="targetPoint" />
          </mxGeometry>
        </mxCell>
        <mxCell id="domx7-sZn7_cAPAupG3E-164" style="edgeStyle=orthogonalEdgeStyle;rounded=0;orthogonalLoop=1;jettySize=auto;html=1;entryX=1;entryY=0.5;entryDx=0;entryDy=0;" edge="1" parent="1" source="domx7-sZn7_cAPAupG3E-156" target="domx7-sZn7_cAPAupG3E-149">
          <mxGeometry relative="1" as="geometry" />
        </mxCell>
        <mxCell id="domx7-sZn7_cAPAupG3E-156" value="Has" style="rhombus;whiteSpace=wrap;html=1;" vertex="1" parent="1">
          <mxGeometry x="-610" y="50" width="80" height="80" as="geometry" />
        </mxCell>
        <mxCell id="domx7-sZn7_cAPAupG3E-157" value="*" style="text;html=1;align=center;verticalAlign=middle;resizable=0;points=[];autosize=1;strokeColor=none;fillColor=none;" vertex="1" parent="1">
          <mxGeometry x="-704" y="61" width="30" height="30" as="geometry" />
        </mxCell>
        <mxCell id="domx7-sZn7_cAPAupG3E-158" value="ProgressPercentage" style="ellipse;whiteSpace=wrap;html=1;" vertex="1" parent="1">
          <mxGeometry x="-709" y="231" width="120" height="80" as="geometry" />
        </mxCell>
        <mxCell id="domx7-sZn7_cAPAupG3E-159" value="" style="endArrow=classic;html=1;rounded=0;exitX=0.992;exitY=1;exitDx=0;exitDy=0;exitPerimeter=0;entryX=0.321;entryY=0.04;entryDx=0;entryDy=0;entryPerimeter=0;" edge="1" parent="1" source="domx7-sZn7_cAPAupG3E-149" target="domx7-sZn7_cAPAupG3E-158">
          <mxGeometry width="50" height="50" relative="1" as="geometry">
            <mxPoint x="-768" y="140" as="sourcePoint" />
            <mxPoint x="-770" y="250" as="targetPoint" />
          </mxGeometry>
        </mxCell>
        <mxCell id="domx7-sZn7_cAPAupG3E-162" value="*" style="text;html=1;align=center;verticalAlign=middle;resizable=0;points=[];autosize=1;strokeColor=none;fillColor=none;" vertex="1" parent="1">
          <mxGeometry x="-1045" y="49" width="30" height="30" as="geometry" />
        </mxCell>
        <mxCell id="domx7-sZn7_cAPAupG3E-166" value="Resource-Library" style="rounded=0;whiteSpace=wrap;html=1;" vertex="1" parent="1">
          <mxGeometry x="460" y="-656" width="120" height="60" as="geometry" />
        </mxCell>
        <mxCell id="domx7-sZn7_cAPAupG3E-167" value="&lt;u&gt;ResourceID&lt;/u&gt;" style="ellipse;whiteSpace=wrap;html=1;" vertex="1" parent="1">
          <mxGeometry x="90" y="-542" width="120" height="80" as="geometry" />
        </mxCell>
        <mxCell id="domx7-sZn7_cAPAupG3E-168" value="CourseID(FK)" style="ellipse;whiteSpace=wrap;html=1;" vertex="1" parent="1">
          <mxGeometry x="200" y="-482" width="120" height="80" as="geometry" />
        </mxCell>
        <mxCell id="domx7-sZn7_cAPAupG3E-169" value="Title" style="ellipse;whiteSpace=wrap;html=1;" vertex="1" parent="1">
          <mxGeometry x="340" y="-462" width="120" height="80" as="geometry" />
        </mxCell>
        <mxCell id="domx7-sZn7_cAPAupG3E-170" value="" style="endArrow=classic;html=1;rounded=0;exitX=0.118;exitY=0.982;exitDx=0;exitDy=0;exitPerimeter=0;" edge="1" parent="1" source="domx7-sZn7_cAPAupG3E-166" target="domx7-sZn7_cAPAupG3E-167">
          <mxGeometry width="50" height="50" relative="1" as="geometry">
            <mxPoint x="501" y="-582" as="sourcePoint" />
            <mxPoint x="481" y="-492" as="targetPoint" />
          </mxGeometry>
        </mxCell>
        <mxCell id="domx7-sZn7_cAPAupG3E-171" value="" style="endArrow=classic;html=1;rounded=0;exitX=0.5;exitY=1;exitDx=0;exitDy=0;entryX=0.5;entryY=0;entryDx=0;entryDy=0;" edge="1" parent="1" source="domx7-sZn7_cAPAupG3E-166" target="domx7-sZn7_cAPAupG3E-169">
          <mxGeometry width="50" height="50" relative="1" as="geometry">
            <mxPoint x="736" y="-582" as="sourcePoint" />
            <mxPoint x="671" y="-488" as="targetPoint" />
          </mxGeometry>
        </mxCell>
        <mxCell id="domx7-sZn7_cAPAupG3E-172" value="" style="endArrow=classic;html=1;rounded=0;entryX=0.5;entryY=0;entryDx=0;entryDy=0;exitX=0.345;exitY=0.998;exitDx=0;exitDy=0;exitPerimeter=0;" edge="1" parent="1" source="domx7-sZn7_cAPAupG3E-166" target="domx7-sZn7_cAPAupG3E-168">
          <mxGeometry width="50" height="50" relative="1" as="geometry">
            <mxPoint x="556" y="-582" as="sourcePoint" />
            <mxPoint x="491" y="-488" as="targetPoint" />
          </mxGeometry>
        </mxCell>
        <mxCell id="domx7-sZn7_cAPAupG3E-173" value="Description" style="ellipse;whiteSpace=wrap;html=1;" vertex="1" parent="1">
          <mxGeometry x="480" y="-442" width="120" height="80" as="geometry" />
        </mxCell>
        <mxCell id="domx7-sZn7_cAPAupG3E-174" value="" style="endArrow=classic;html=1;rounded=0;entryX=0.418;entryY=0.006;entryDx=0;entryDy=0;entryPerimeter=0;exitX=0.667;exitY=0.982;exitDx=0;exitDy=0;exitPerimeter=0;" edge="1" parent="1" source="domx7-sZn7_cAPAupG3E-166" target="domx7-sZn7_cAPAupG3E-173">
          <mxGeometry width="50" height="50" relative="1" as="geometry">
            <mxPoint x="568" y="-582" as="sourcePoint" />
            <mxPoint x="610" y="-463" as="targetPoint" />
          </mxGeometry>
        </mxCell>
        <mxCell id="domx7-sZn7_cAPAupG3E-175" value="ResourceType" style="ellipse;whiteSpace=wrap;html=1;" vertex="1" parent="1">
          <mxGeometry x="620" y="-442" width="120" height="80" as="geometry" />
        </mxCell>
        <mxCell id="domx7-sZn7_cAPAupG3E-176" value="" style="endArrow=classic;html=1;rounded=0;entryX=0.321;entryY=0.04;entryDx=0;entryDy=0;entryPerimeter=0;exitX=0.821;exitY=1.01;exitDx=0;exitDy=0;exitPerimeter=0;" edge="1" parent="1" source="domx7-sZn7_cAPAupG3E-166" target="domx7-sZn7_cAPAupG3E-175">
          <mxGeometry width="50" height="50" relative="1" as="geometry">
            <mxPoint x="696" y="-582" as="sourcePoint" />
            <mxPoint x="723" y="-452" as="targetPoint" />
          </mxGeometry>
        </mxCell>
        <mxCell id="domx7-sZn7_cAPAupG3E-177" value="URL" style="ellipse;whiteSpace=wrap;html=1;" vertex="1" parent="1">
          <mxGeometry x="740" y="-522" width="120" height="80" as="geometry" />
        </mxCell>
        <mxCell id="domx7-sZn7_cAPAupG3E-178" value="" style="endArrow=classic;html=1;rounded=0;entryX=0;entryY=0.5;entryDx=0;entryDy=0;exitX=0.919;exitY=0.985;exitDx=0;exitDy=0;exitPerimeter=0;" edge="1" parent="1" source="domx7-sZn7_cAPAupG3E-166" target="domx7-sZn7_cAPAupG3E-177">
          <mxGeometry width="50" height="50" relative="1" as="geometry">
            <mxPoint x="600" y="-571" as="sourcePoint" />
            <mxPoint x="669" y="-429" as="targetPoint" />
          </mxGeometry>
        </mxCell>
        <mxCell id="domx7-sZn7_cAPAupG3E-184" style="edgeStyle=orthogonalEdgeStyle;rounded=0;orthogonalLoop=1;jettySize=auto;html=1;entryX=0;entryY=0.5;entryDx=0;entryDy=0;" edge="1" parent="1" source="domx7-sZn7_cAPAupG3E-180" target="domx7-sZn7_cAPAupG3E-166">
          <mxGeometry relative="1" as="geometry" />
        </mxCell>
        <mxCell id="domx7-sZn7_cAPAupG3E-180" value="Has" style="rhombus;whiteSpace=wrap;html=1;" vertex="1" parent="1">
          <mxGeometry x="-170" y="-666" width="80" height="80" as="geometry" />
        </mxCell>
        <mxCell id="domx7-sZn7_cAPAupG3E-181" value="*" style="text;html=1;align=center;verticalAlign=middle;resizable=0;points=[];autosize=1;strokeColor=none;fillColor=none;" vertex="1" parent="1">
          <mxGeometry x="145" y="-654" width="30" height="30" as="geometry" />
        </mxCell>
        <mxCell id="domx7-sZn7_cAPAupG3E-182" value="*" style="text;html=1;align=center;verticalAlign=middle;resizable=0;points=[];autosize=1;strokeColor=none;fillColor=none;" vertex="1" parent="1">
          <mxGeometry x="755" y="-654" width="30" height="30" as="geometry" />
        </mxCell>
        <mxCell id="domx7-sZn7_cAPAupG3E-185" value="*" style="text;html=1;align=center;verticalAlign=middle;resizable=0;points=[];autosize=1;strokeColor=none;fillColor=none;" vertex="1" parent="1">
          <mxGeometry x="-70" y="150" width="30" height="30" as="geometry" />
        </mxCell>
        <mxCell id="domx7-sZn7_cAPAupG3E-186" value="*" style="text;html=1;align=center;verticalAlign=middle;resizable=0;points=[];autosize=1;strokeColor=none;fillColor=none;" vertex="1" parent="1">
          <mxGeometry x="-120" y="-402" width="30" height="30" as="geometry" />
        </mxCell>
      </root>
    </mxGraphModel>
  </diagram>
</mxfile>
